<?xml version="1.0" encoding="utf-8"?>
<!-- Generator: Adobe Illustrator 15.0.0, SVG Export Plug-In . SVG Version: 6.00 Build 0)  -->
<!DOCTYPE svg PUBLIC "-//W3C//DTD SVG 1.1//EN" "http://www.w3.org/Graphics/SVG/1.1/DTD/svg11.dtd">
<svg version="1.1" id="Layer_1" xmlns="http://www.w3.org/2000/svg" xmlns:xlink="http://www.w3.org/1999/xlink" x="0px" y="0px"
	 viewBox="0 0 1000 210" enable-background="new 0 0 1000 210" xml:space="preserve">
	<style type="text/css"><![CDATA[
	path { 
		fill: #fff;
		fill-opacity: .1;
		stroke: #fff; 
		stroke-opacity: .5; }
	]]></style>
<g>
	<path d="M926.659,98.228c0,5.379-3.759,6.183-5.998,6.183H78.794c-2.241,0-6-0.804-6-6.182c0-0.545,0.039-1.132,0.115-1.744
		c0,0,0.028-0.214,0.036-0.262c2.762-19.743,15.357-37.926,35.467-51.201c19.847-13.101,45.188-20.316,71.355-20.316
		c39.7,0,85.914,3.336,139.428,6.283c69.168,3.808,147.565,8.917,234.394,8.917c78.243,0,141.675-4.794,192.642-8.009
		c49.332-3.113,84.976-6.153,109.644-3.282c14.707,1.713,31.267,9.548,44.299,20.959c7.077,6.197,12.916,13.191,17.354,20.788
		c4.848,8.297,7.884,17.104,9.023,26.177C926.623,97.13,926.659,97.698,926.659,98.228"/>
	<path fill="none" stroke="#06B0D8" stroke-width="0.186" d="M926.659,98.228c0,5.379-3.759,6.183-5.998,6.183H78.794
		c-2.241,0-6-0.804-6-6.182c0-0.545,0.039-1.132,0.115-1.744c0,0,0.028-0.214,0.036-0.262c2.762-19.743,15.357-37.926,35.467-51.201
		c19.847-13.101,45.188-20.316,71.355-20.316c39.7,0,85.914,3.336,139.428,6.283c69.168,3.808,147.565,8.917,234.394,8.917
		c78.243,0,141.675-4.794,192.642-8.009c49.332-3.113,84.976-6.153,109.644-3.282c14.707,1.713,31.267,9.548,44.299,20.959
		c7.077,6.197,12.916,13.191,17.354,20.788c4.848,8.297,7.884,17.104,9.023,26.177C926.623,97.13,926.659,97.698,926.659,98.228z"/>
	<path fill="#FFFFFF" d="M78.794,104.146c-2.143,0-3.734-0.77-3.734-5.918c0-0.534,0.038-1.11,0.113-1.711l0.034-0.258
		c2.752-19.667,14.307-37.785,34.352-51.017c19.804-13.073,44.093-20.273,70.21-20.273c31.104,0,65.672,2.577,105.7,4.912
		c10.882,0.636,22.135,1.665,33.712,2.302c8.467,0.467,16.894,0.942,25.815,1.446c62.054,3.502,132.387,8.404,208.594,8.404
		c69.021,0,127.283-4.712,174.097-7.749c6.453-0.418,12.549-0.814,18.562-1.193c6.748-0.426,13.222-0.849,19.482-1.258
		c26.04-1.702,48.529-4.104,66.577-4.104c9.2,0,16.899,0.375,23.536,1.148C870.5,30.583,887.006,38.395,900,49.772
		c7.055,6.178,11.875,13.15,16.299,20.723c4.83,8.266,6.854,17.039,7.988,26.076c0.071,0.58,0.106,1.138,0.106,1.656
		c0,5.15-3.593,5.919-5.733,5.919H78.794z"/>
	<path d="M926.659,111.648c0,0.529-0.036,1.098-0.108,1.69c-1.14,9.071-4.176,17.879-9.023,26.176
		c-4.438,7.597-10.277,14.592-17.354,20.788c-13.032,11.411-29.592,19.246-44.299,20.959c-24.668,2.871-60.312-0.169-109.644-3.281
		c-50.967-3.216-114.398-8.01-192.642-8.01c-86.828,0-165.226,5.108-234.394,8.917c-53.514,2.947-99.728,6.283-139.428,6.283
		c-26.168,0-51.509-7.216-71.355-20.316c-20.109-13.275-32.705-31.458-35.467-51.2l-0.036-0.266
		c-0.076-0.609-0.115-1.196-0.115-1.741c0-5.378,3.759-6.182,6-6.182h841.867c1.464,0,2.745,0.336,3.706,0.97
		C925.888,107.439,926.659,109.193,926.659,111.648z"/>
	<path fill="none" stroke="#06B0D8" stroke-width="0.186" d="M926.659,111.648c0,0.529-0.036,1.098-0.108,1.69
		c-1.14,9.071-4.176,17.879-9.023,26.176c-4.438,7.597-10.277,14.592-17.354,20.788c-13.032,11.411-29.592,19.246-44.299,20.959
		c-24.668,2.871-60.312-0.169-109.644-3.281c-50.967-3.216-114.398-8.01-192.642-8.01c-86.828,0-165.226,5.108-234.394,8.917
		c-53.514,2.947-99.728,6.283-139.428,6.283c-26.168,0-51.509-7.216-71.355-20.316c-20.109-13.275-32.705-31.458-35.467-51.2
		l-0.036-0.266c-0.076-0.609-0.115-1.196-0.115-1.741c0-5.378,3.759-6.182,6-6.182h841.867c1.464,0,2.745,0.336,3.706,0.97
		C925.888,107.439,926.659,109.193,926.659,111.648z"/>
	<path fill="#FFFFFF" d="M179.769,184.906c-26.117,0-50.406-7.199-70.21-20.272c-20.045-13.232-31.6-31.35-34.352-51.016
		l-0.035-0.266c-0.074-0.596-0.112-1.171-0.112-1.705c0-5.148,1.592-5.918,3.733-5.918H918.66c1.412,0,2.643,0.32,3.561,0.926
		c1.443,0.952,2.173,2.633,2.173,4.992c0,0.521-0.035,1.078-0.106,1.659c-1.135,9.035-3.158,17.808-7.988,26.074
		c-4.424,7.573-9.244,14.545-16.299,20.724c-12.994,11.377-29.5,19.188-44.156,20.895c-6.637,0.772-14.336,1.147-23.537,1.147
		c-18.049,0-40.538-2.401-66.578-4.104c-6.26-0.409-12.734-0.832-19.482-1.258c-6.012-0.38-12.106-0.775-18.56-1.193
		c-46.813-3.037-105.075-7.749-174.097-7.749c-76.204,0-146.536,4.902-208.588,8.404c-8.924,0.504-17.353,0.979-25.821,1.445
		c-11.575,0.638-22.826,1.666-33.707,2.302C245.444,182.33,210.873,184.906,179.769,184.906"/>
</g>
</svg>
