<?xml version="1.0" encoding="utf-8"?>
<!-- Generator: Adobe Illustrator 15.0.0, SVG Export Plug-In . SVG Version: 6.00 Build 0)  -->
<!DOCTYPE svg PUBLIC "-//W3C//DTD SVG 1.1//EN" "http://www.w3.org/Graphics/SVG/1.1/DTD/svg11.dtd">
<svg version="1.1" xmlns="http://www.w3.org/2000/svg" xmlns:xlink="http://www.w3.org/1999/xlink" x="0px" y="0px" viewBox="0 0 1000 210" enable-background="new 0 0 1000 210" xml:space="preserve">
<g id="Layer_1" display="none">
	<g display="inline">
		<path d="M996.476,142.401c0-4.368-0.372-10.821-2.049-12.326c-3.447-3.195-6.691-6.602-19.192-10.416
			c-42.5-12.97-134.162-12.538-176.796-12.538c-45.069,0-148.53,1.633-267.317,1.633c-118.785,0-277.268-2.423-310.282-1.848
			c-54.329,0.945-86.497,0.87-128.634,3.372c-25.519,1.515-45.385,3.603-57.923,7.061c-20.895,5.764-30.33,15.7-30.33,25.803
			c0,10.104,9.435,20.039,30.33,25.804c12.538,3.459,32.404,5.546,57.923,7.061c42.137,2.502,74.305,2.426,128.634,3.372
			c33.015,0.576,191.497-1.847,310.282-1.847c118.787,0,222.248,1.632,267.317,1.632c42.634,0,134.296,0.432,176.796-12.537
			c12.501-3.816,15.745-7.222,19.192-10.417c1.677-1.505,2.049-7.957,2.049-12.326V142.401z"/>
		<path d="M996.476,65.993c0-4.368-0.372-10.821-2.049-12.326c-3.447-3.195-6.691-6.601-19.192-10.416
			c-42.5-12.97-134.162-12.538-176.796-12.538c-45.069,0-148.53,1.633-267.317,1.633c-118.785,0-277.268-2.423-310.282-1.848
			c-54.329,0.946-86.497,0.87-128.634,3.372c-25.519,1.515-45.385,3.603-57.923,7.061c-20.895,5.764-30.33,15.7-30.33,25.803
			s9.435,20.039,30.33,25.803c12.538,3.459,32.404,5.546,57.923,7.061c42.137,2.502,74.305,2.426,128.634,3.372
			c33.015,0.576,191.497-1.847,310.282-1.847c118.787,0,222.248,1.632,267.317,1.632c42.634,0,134.296,0.432,176.796-12.538
			c12.501-3.816,15.745-7.222,19.192-10.417c1.677-1.505,2.049-7.957,2.049-12.326V65.993z"/>
		<path fill="#FFFFFF" d="M995.211,143.883c0,6.493-0.732,11.027-1.961,12.13c-0.163,0.15-0.323,0.3-0.482,0.448
			c-3.316,3.094-5.746,6.291-17.61,9.912c-17.761,5.42-46.437,9.114-85.236,10.979c-32.522,1.563-63.731,1.025-85.614,1.02
			l-4.004-0.001c-17.179,0-42.521-0.498-74.604-0.795c-50.307-0.465-119.205-1.893-192.715-1.893
			c-62.554,0-136.861,1.47-196.567,2.016c-54.8,0.5-98.084,1.16-113.71,0.887c-12.145-0.211-22.987-0.368-33.472-0.521
			c-36.249-0.527-64.303-0.38-97.015-2.323c-28.084-1.667-46.472-3.908-57.868-7.051C15.2,163.408,5.216,154.096,5.216,143.143
			c0-10.954,9.984-20.267,29.136-25.549c11.396-3.144,29.784-5.385,57.868-7.053c32.712-1.941,60.766-1.795,97.015-2.321
			c10.485-0.152,21.327-0.311,33.472-0.522c15.626-0.271,58.91,0.388,113.71,0.888c59.706,0.545,134.013,2.017,196.567,2.017
			c73.51,0,142.408-1.429,192.715-1.895c32.083-0.296,57.425-0.794,74.604-0.794l4.002-0.001
			c21.885-0.007,53.092-0.544,85.615,1.021c38.801,1.864,67.477,5.559,85.237,10.979c11.864,3.621,14.294,6.819,17.61,9.912
			c0.159,0.149,0.319,0.297,0.479,0.445c1.231,1.105,1.964,5.64,1.964,12.133V143.883z"/>
	</g>
	<g display="inline">
		<path fill="#FFFFFF" d="M995.211,67.475c0,6.493-0.732,11.027-1.961,12.129c-0.163,0.151-0.323,0.3-0.482,0.449
			c-3.316,3.093-5.746,6.291-17.61,9.912c-17.761,5.42-46.437,9.114-85.236,10.979c-32.522,1.564-63.731,1.026-85.614,1.02
			l-4.004-0.001c-17.179,0-42.521-0.498-74.604-0.795c-50.307-0.465-119.205-1.893-192.715-1.893
			c-62.554,0-136.861,1.47-196.567,2.016c-54.8,0.5-98.084,1.16-113.71,0.887c-12.145-0.211-22.987-0.369-33.472-0.521
			c-36.249-0.527-64.303-0.38-97.015-2.323c-28.084-1.667-46.472-3.908-57.868-7.051C15.2,87,5.216,77.687,5.216,66.734
			c0-10.954,9.984-20.266,29.136-25.549c11.396-3.143,29.784-5.384,57.868-7.052c32.712-1.942,60.766-1.795,97.015-2.322
			c10.485-0.152,21.327-0.31,33.472-0.522c15.626-0.272,58.91,0.388,113.71,0.888c59.706,0.545,134.013,2.016,196.567,2.016
			c73.51,0,142.408-1.428,192.715-1.894c32.083-0.296,57.425-0.794,74.604-0.794l4.002-0.001c21.885-0.007,53.092-0.544,85.615,1.02
			c38.801,1.865,67.477,5.559,85.237,10.979c11.864,3.621,14.294,6.819,17.61,9.912c0.159,0.149,0.319,0.297,0.479,0.445
			c1.231,1.106,1.964,5.64,1.964,12.133V67.475z"/>
	</g>
</g>
<g id="Layer_2">
	<g>
		<path d="M996.476,142.401c0-4.368-0.372-10.821-2.049-12.326c-3.447-3.195-6.691-6.602-19.192-10.416
			c-42.5-12.97-134.162-12.538-176.796-12.538c-45.069,0-148.53,1.633-267.317,1.633c-118.785,0-277.268-2.423-310.282-1.848
			c-54.329,0.945-86.497,0.87-128.634,3.372c-25.519,1.515-45.385,3.603-57.923,7.061c-20.895,5.764-30.33,15.7-30.33,25.803
			c0,10.104,9.435,20.039,30.33,25.804c12.538,3.459,32.404,5.546,57.923,7.061c42.137,2.502,74.305,2.426,128.634,3.372
			c33.015,0.576,191.497-1.847,310.282-1.847c118.787,0,222.248,1.632,267.317,1.632c42.634,0,134.296,0.432,176.796-12.537
			c12.501-3.816,15.745-7.222,19.192-10.417c1.677-1.505,2.049-7.957,2.049-12.326V142.401z"/>
		<path d="M996.476,65.993c0-4.368-0.372-10.821-2.049-12.326c-3.447-3.195-6.691-6.601-19.192-10.416
			c-42.5-12.97-134.162-12.538-176.796-12.538c-45.069,0-148.53,1.633-267.317,1.633c-118.785,0-277.268-2.423-310.282-1.848
			c-54.329,0.946-86.497,0.87-128.634,3.372c-25.519,1.515-45.385,3.603-57.923,7.061c-20.895,5.764-30.33,15.7-30.33,25.803
			s9.435,20.039,30.33,25.803c12.538,3.459,32.404,5.546,57.923,7.061c42.137,2.502,74.305,2.426,128.634,3.372
			c33.015,0.576,191.497-1.847,310.282-1.847c118.787,0,222.248,1.632,267.317,1.632c42.634,0,134.296,0.432,176.796-12.538
			c12.501-3.816,15.745-7.222,19.192-10.417c1.677-1.505,2.049-7.957,2.049-12.326V65.993z"/>
		<path fill="#FAF0DF" d="M995.211,143.883c0,6.493-0.732,11.027-1.961,12.13c-0.163,0.15-0.323,0.3-0.482,0.448
			c-3.316,3.094-5.746,6.291-17.61,9.912c-17.761,5.42-46.437,9.114-85.236,10.979c-32.522,1.563-63.731,1.025-85.614,1.02
			l-4.004-0.001c-17.179,0-42.521-0.498-74.604-0.795c-50.307-0.465-119.205-1.893-192.715-1.893
			c-62.554,0-136.861,1.47-196.567,2.016c-54.8,0.5-98.084,1.16-113.71,0.887c-12.145-0.211-22.987-0.368-33.472-0.521
			c-36.249-0.527-64.303-0.38-97.015-2.323c-28.084-1.667-46.472-3.908-57.868-7.051C15.2,163.408,5.216,154.096,5.216,143.143
			c0-10.954,9.984-20.267,29.136-25.549c11.396-3.144,29.784-5.385,57.868-7.053c32.712-1.941,60.766-1.795,97.015-2.321
			c10.485-0.152,21.327-0.311,33.472-0.522c15.626-0.271,58.91,0.388,113.71,0.888c59.706,0.545,134.013,2.017,196.567,2.017
			c73.51,0,142.408-1.429,192.715-1.895c32.083-0.296,57.425-0.794,74.604-0.794l4.002-0.001
			c21.885-0.007,53.092-0.544,85.615,1.021c38.801,1.864,67.477,5.559,85.237,10.979c11.864,3.621,14.294,6.819,17.61,9.912
			c0.159,0.149,0.319,0.297,0.479,0.445c1.231,1.105,1.964,5.64,1.964,12.133V143.883z"/>
	</g>
	<g>
		<defs>
			<path id="SVGID_1_" d="M222.707,107.697c-12.145,0.212-22.987,0.37-33.472,0.521c-36.25,0.528-64.303,0.38-97.014,2.323
				c-28.086,1.668-46.473,3.908-57.869,7.052C15.2,122.876,5.217,132.188,5.217,143.143c0,10.952,9.983,20.265,29.135,25.549
				c11.396,3.143,29.783,5.384,57.869,7.052c32.711,1.941,60.764,1.795,97.014,2.321c10.485,0.153,21.327,0.311,33.472,0.521
				c15.626,0.273,58.91-0.386,113.71-0.888c59.706-0.545,134.013-2.016,196.567-2.016c73.511,0,142.408,1.429,192.715,1.894
				c32.084,0.297,57.425,0.795,74.604,0.795l4.004,0.001c21.885,0.007,53.092,0.544,85.615-1.02
				c38.798-1.865,67.475-5.56,85.234-10.979c11.865-3.621,14.295-6.819,17.611-9.912c0.16-0.149,0.318-0.297,0.482-0.449
				c1.227-1.102,1.961-5.636,1.961-12.129v-1.481c0-6.492-0.734-11.027-1.965-12.134c-0.16-0.146-0.318-0.296-0.479-0.445
				c-3.316-3.091-5.746-6.289-17.611-9.911c-17.76-5.419-46.438-9.114-85.235-10.979c-32.524-1.563-63.731-1.025-85.616-1.019
				h-4.002c-17.179,0-42.52,0.499-74.604,0.794c-50.307,0.465-119.204,1.895-192.715,1.895c-62.554,0-136.861-1.472-196.567-2.017
				c-45.96-0.419-83.819-0.951-104.056-0.951C228.468,107.634,225.228,107.653,222.707,107.697"/>
		</defs>
		<clipPath id="SVGID_2_">
			<use xlink:href="#SVGID_1_"  overflow="visible"/>
		</clipPath>
		<polygon clip-path="url(#SVGID_2_)" fill-rule="evenodd" clip-rule="evenodd" fill="#AD2070" points="198.135,182.01 
			90.536,55.573 82.096,58.728 67.811,41.917 65.992,61.586 47.802,59.311 61.807,75.762 58.157,83.724 165.752,210.155 		"/>
		
			<line clip-path="url(#SVGID_2_)" fill="none" stroke="#000000" stroke-width="0" stroke-miterlimit="3.864" x1="90.539" y1="55.578" x2="198.135" y2="182.009"/>
		<polygon clip-path="url(#SVGID_2_)" fill-rule="evenodd" clip-rule="evenodd" fill="#DC5B26" points="240.255,182.01 
			132.656,55.573 124.217,58.728 109.932,41.917 108.113,61.586 89.922,59.311 103.927,75.762 100.277,83.724 207.872,210.155 		"/>
		<polygon clip-path="url(#SVGID_2_)" fill-rule="evenodd" clip-rule="evenodd" fill="#E2B72D" points="282.375,182.01 
			174.778,55.573 166.337,58.728 152.052,41.917 150.233,61.586 132.043,59.311 146.048,75.762 142.397,83.724 249.993,210.155 		
			"/>
		<polygon clip-path="url(#SVGID_2_)" fill-rule="evenodd" clip-rule="evenodd" fill="#047744" points="324.496,182.01 
			216.898,55.573 208.457,58.728 194.172,41.917 192.354,61.586 174.164,59.311 188.168,75.762 184.518,83.724 292.113,210.155 		
			"/>
		<polygon clip-path="url(#SVGID_2_)" fill-rule="evenodd" clip-rule="evenodd" fill="#015192" points="366.616,182.01 
			259.018,55.573 250.577,58.728 236.292,41.917 234.473,61.586 216.284,59.311 230.289,75.762 226.638,83.724 334.234,210.155 		
			"/>
		<polygon clip-path="url(#SVGID_2_)" fill="#C52F47" points="198.135,182.01 189.964,189.11 100.278,83.724 103.927,75.762 
			89.922,59.311 105.094,60.657 105.076,72.657 		"/>
		<polygon clip-path="url(#SVGID_2_)" fill="#DE8928" points="240.255,182.01 232.085,189.11 142.398,83.724 146.048,75.762 
			132.043,59.311 148.63,61.012 146.508,71.847 		"/>
		<polygon clip-path="url(#SVGID_2_)" fill="#73973E" points="282.375,182.01 274.206,189.11 184.519,83.724 188.168,75.762 
			174.164,59.311 189.91,60.967 188.795,72.044 		"/>
		<polygon clip-path="url(#SVGID_2_)" fill="#05636B" points="324.496,182.01 316.326,189.11 226.639,83.724 230.289,75.762 
			216.284,59.311 232.075,61.499 230.935,72.066 		"/>
		<polygon clip-path="url(#SVGID_2_)" fill-rule="evenodd" clip-rule="evenodd" fill="#AD2070" points="409.09,182.01 
			301.492,55.573 293.051,58.728 278.767,41.917 276.948,61.586 258.757,59.311 272.762,75.762 269.113,83.724 376.708,210.155 		
			"/>
		<polygon clip-path="url(#SVGID_2_)" fill="#582D82" points="366.906,182.01 358.736,189.11 269.05,83.724 272.699,75.762 
			258.694,59.311 278,61.499 273.658,72.436 		"/>
		<polygon clip-path="url(#SVGID_2_)" fill-rule="evenodd" clip-rule="evenodd" fill="#FFFFFF" points="90.536,55.573 
			78.282,66.346 84.573,81.405 70.538,73.079 58.161,83.714 61.742,67.794 47.802,59.311 64.051,57.796 67.811,41.916 
			74.272,56.903 		"/>
		<polygon clip-path="url(#SVGID_2_)" fill-rule="evenodd" clip-rule="evenodd" fill="#FFFFFF" points="301.492,55.573 
			289.237,66.346 295.528,81.405 281.493,73.079 269.117,83.714 272.698,67.794 258.758,59.311 275.006,57.796 278.767,41.916 
			285.227,56.903 		"/>
		<polygon clip-path="url(#SVGID_2_)" fill-rule="evenodd" clip-rule="evenodd" fill="#FFFFFF" points="259.018,55.573 
			246.763,66.346 253.054,81.405 239.02,73.079 226.643,83.714 230.224,67.794 216.284,59.311 232.533,57.796 236.293,41.916 
			242.754,56.903 		"/>
		<polygon clip-path="url(#SVGID_2_)" fill-rule="evenodd" clip-rule="evenodd" fill="#FFFFFF" points="216.897,55.573 
			204.643,66.346 210.934,81.405 196.9,73.079 184.522,83.714 188.104,67.794 174.164,59.311 190.413,57.796 194.173,41.916 
			200.634,56.903 		"/>
		<polygon clip-path="url(#SVGID_2_)" fill-rule="evenodd" clip-rule="evenodd" fill="#FFFFFF" points="174.777,55.573 
			162.522,66.346 168.813,81.405 154.778,73.079 142.402,83.714 145.983,67.794 132.043,59.311 148.292,57.796 152.052,41.916 
			158.513,56.903 		"/>
		<polygon clip-path="url(#SVGID_2_)" fill-rule="evenodd" clip-rule="evenodd" fill="#FFFFFF" points="132.656,55.573 
			120.402,66.346 126.693,81.405 112.658,73.079 100.281,83.714 103.863,67.794 89.922,59.311 106.172,57.796 109.932,41.916 
			116.392,56.903 		"/>
		
			<line clip-path="url(#SVGID_2_)" fill="none" stroke="#000000" stroke-width="0" stroke-miterlimit="3.864" x1="301.496" y1="55.578" x2="409.09" y2="182.009"/>
		<polygon clip-path="url(#SVGID_2_)" fill-rule="evenodd" clip-rule="evenodd" fill="#DC5B26" points="451.211,182.01 
			343.613,55.573 335.173,58.728 320.887,41.917 319.069,61.586 300.878,59.311 314.883,75.762 311.234,83.724 418.829,210.155 		
			"/>
		<polygon clip-path="url(#SVGID_2_)" fill-rule="evenodd" clip-rule="evenodd" fill="#E2B72D" points="493.331,182.01 
			385.733,55.573 377.293,58.728 363.008,41.917 361.189,61.586 342.999,59.311 357.003,75.762 353.354,83.724 460.949,210.155 		
			"/>
		<polygon clip-path="url(#SVGID_2_)" fill-rule="evenodd" clip-rule="evenodd" fill="#047744" points="535.451,182.01 
			427.853,55.573 419.413,58.728 405.127,41.917 403.309,61.586 385.119,59.311 399.123,75.762 395.474,83.724 503.069,210.155 		
			"/>
		<polygon clip-path="url(#SVGID_2_)" fill-rule="evenodd" clip-rule="evenodd" fill="#015192" points="577.572,182.01 
			469.974,55.573 461.534,58.728 447.248,41.917 445.43,61.586 427.24,59.311 441.245,75.762 437.595,83.724 545.189,210.155 		"/>
		<polygon clip-path="url(#SVGID_2_)" fill="#C52F47" points="409.09,182.01 400.92,189.11 311.233,83.724 314.883,75.762 
			300.877,59.311 316.049,60.657 316.031,72.657 		"/>
		<polygon clip-path="url(#SVGID_2_)" fill="#DE8928" points="451.211,182.01 443.041,189.11 353.354,83.724 357.003,75.762 
			342.999,59.311 359.586,61.012 357.464,71.847 		"/>
		<polygon clip-path="url(#SVGID_2_)" fill="#73973E" points="493.331,182.01 485.16,189.11 395.475,83.724 399.124,75.762 
			385.119,59.311 400.865,60.967 399.752,72.044 		"/>
		<polygon clip-path="url(#SVGID_2_)" fill="#05636B" points="535.451,182.01 527.281,189.11 437.595,83.724 441.245,75.762 
			427.239,59.311 443.03,61.499 441.89,72.066 		"/>
		<polygon clip-path="url(#SVGID_2_)" fill-rule="evenodd" clip-rule="evenodd" fill="#AD2070" points="620.047,182.01 
			512.449,55.573 504.008,58.728 489.723,41.917 487.904,61.586 469.713,59.311 483.719,75.762 480.068,83.724 587.664,210.155 		
			"/>
		<polygon clip-path="url(#SVGID_2_)" fill="#582D82" points="577.862,182.01 569.692,189.11 480.005,83.724 483.655,75.762 
			469.65,59.311 488.955,61.499 484.614,72.436 		"/>
		<polygon clip-path="url(#SVGID_2_)" fill-rule="evenodd" clip-rule="evenodd" fill="#FFFFFF" points="301.492,55.573 
			289.237,66.346 295.528,81.405 281.493,73.079 269.117,83.714 272.698,67.794 258.758,59.311 275.006,57.796 278.767,41.916 
			285.227,56.903 		"/>
		<polygon clip-path="url(#SVGID_2_)" fill-rule="evenodd" clip-rule="evenodd" fill="#FFFFFF" points="512.448,55.573 
			500.192,66.346 506.483,81.405 492.449,73.079 480.073,83.714 483.654,67.794 469.714,59.311 485.963,57.796 489.724,41.916 
			496.184,56.903 		"/>
		<polygon clip-path="url(#SVGID_2_)" fill-rule="evenodd" clip-rule="evenodd" fill="#FFFFFF" points="469.974,55.573 
			457.718,66.346 464.009,81.405 449.976,73.079 437.599,83.714 441.179,67.794 427.239,59.311 443.488,57.796 447.249,41.916 
			453.709,56.903 		"/>
		<polygon clip-path="url(#SVGID_2_)" fill-rule="evenodd" clip-rule="evenodd" fill="#FFFFFF" points="427.853,55.573 
			415.598,66.346 421.889,81.405 407.855,73.079 395.478,83.714 399.059,67.794 385.119,59.311 401.368,57.796 405.128,41.916 
			411.589,56.903 		"/>
		<polygon clip-path="url(#SVGID_2_)" fill-rule="evenodd" clip-rule="evenodd" fill="#FFFFFF" points="385.733,55.573 
			373.478,66.346 379.769,81.405 365.734,73.079 353.358,83.714 356.939,67.794 342.999,59.311 359.248,57.796 363.008,41.916 
			369.469,56.903 		"/>
		<polygon clip-path="url(#SVGID_2_)" fill-rule="evenodd" clip-rule="evenodd" fill="#FFFFFF" points="343.612,55.573 
			331.357,66.346 337.648,81.405 323.613,73.079 311.237,83.714 314.818,67.794 300.877,59.311 317.127,57.796 320.888,41.916 
			327.348,56.903 		"/>
		
			<line clip-path="url(#SVGID_2_)" fill="none" stroke="#000000" stroke-width="0" stroke-miterlimit="3.864" x1="512.453" y1="55.578" x2="620.049" y2="182.009"/>
		<polygon clip-path="url(#SVGID_2_)" fill-rule="evenodd" clip-rule="evenodd" fill="#DC5B26" points="662.168,182.01 
			554.57,55.573 546.131,58.728 531.846,41.917 530.027,61.586 511.838,59.311 525.84,75.762 522.191,83.724 629.786,210.155 		"/>
		<polygon clip-path="url(#SVGID_2_)" fill-rule="evenodd" clip-rule="evenodd" fill="#E2B72D" points="704.289,182.01 
			596.691,55.573 588.251,58.728 573.965,41.917 572.146,61.586 553.958,59.311 567.963,75.762 564.312,83.724 671.906,210.155 		
			"/>
		<polygon clip-path="url(#SVGID_2_)" fill-rule="evenodd" clip-rule="evenodd" fill="#047744" points="746.409,182.01 
			638.811,55.573 630.371,58.728 616.087,41.917 614.268,61.586 596.078,59.311 610.083,75.762 606.432,83.724 714.027,210.155 		
			"/>
		<polygon clip-path="url(#SVGID_2_)" fill-rule="evenodd" clip-rule="evenodd" fill="#015192" points="788.529,182.01 
			680.933,55.573 672.491,58.728 658.207,41.917 656.387,61.586 638.198,59.311 652.203,75.762 648.553,83.724 756.147,210.155 		
			"/>
		<polygon clip-path="url(#SVGID_2_)" fill="#C52F47" points="620.049,182.01 611.879,189.11 522.191,83.724 525.842,75.762 
			511.838,59.311 527.006,60.657 526.989,72.657 		"/>
		<polygon clip-path="url(#SVGID_2_)" fill="#DE8928" points="662.168,182.01 653.998,189.11 564.312,83.724 567.963,75.762 
			553.957,59.311 570.545,61.012 568.422,71.847 		"/>
		<polygon clip-path="url(#SVGID_2_)" fill="#73973E" points="704.289,182.01 696.119,189.11 606.433,83.724 610.083,75.762 
			596.078,59.311 611.824,60.967 610.711,72.044 		"/>
		<polygon clip-path="url(#SVGID_2_)" fill="#05636B" points="746.409,182.01 738.239,189.11 648.553,83.724 652.203,75.762 
			638.198,59.311 653.987,61.499 652.848,72.066 		"/>
		<polygon clip-path="url(#SVGID_2_)" fill-rule="evenodd" clip-rule="evenodd" fill="#AD2070" points="831.004,182.01 
			723.406,55.573 714.967,58.728 700.68,41.917 698.862,61.586 680.672,59.311 694.676,75.762 691.027,83.724 798.623,210.155 		"/>
		<polygon clip-path="url(#SVGID_2_)" fill="#582D82" points="788.82,182.01 780.65,189.11 690.964,83.724 694.613,75.762 
			680.607,59.311 699.914,61.499 695.572,72.436 		"/>
		<polygon clip-path="url(#SVGID_2_)" fill-rule="evenodd" clip-rule="evenodd" fill="#FFFFFF" points="512.45,55.573 
			500.193,66.346 506.486,81.405 492.452,73.079 480.075,83.714 483.656,67.794 469.716,59.311 485.965,57.796 489.725,41.916 
			496.186,56.903 		"/>
		<polygon clip-path="url(#SVGID_2_)" fill-rule="evenodd" clip-rule="evenodd" fill="#FFFFFF" points="723.406,55.573 
			711.15,66.346 717.441,81.405 703.407,73.079 691.031,83.714 694.612,67.794 680.672,59.311 696.92,57.796 700.682,41.916 
			707.141,56.903 		"/>
		<polygon clip-path="url(#SVGID_2_)" fill-rule="evenodd" clip-rule="evenodd" fill="#FFFFFF" points="680.933,55.573 
			668.677,66.346 674.969,81.405 660.934,73.079 648.556,83.714 652.138,67.794 638.199,59.311 654.447,57.796 658.207,41.916 
			664.668,56.903 		"/>
		<polygon clip-path="url(#SVGID_2_)" fill-rule="evenodd" clip-rule="evenodd" fill="#FFFFFF" points="638.811,55.573 
			626.555,66.346 632.848,81.405 618.812,73.079 606.436,83.714 610.018,67.794 596.078,59.311 612.327,57.796 616.087,41.916 
			622.548,56.903 		"/>
		<polygon clip-path="url(#SVGID_2_)" fill-rule="evenodd" clip-rule="evenodd" fill="#FFFFFF" points="596.69,55.573 
			584.435,66.346 590.728,81.405 576.692,73.079 564.315,83.714 567.896,67.794 553.957,59.311 570.207,57.796 573.966,41.916 
			580.428,56.903 		"/>
		<polygon clip-path="url(#SVGID_2_)" fill-rule="evenodd" clip-rule="evenodd" fill="#FFFFFF" points="554.57,55.573 
			542.314,66.346 548.607,81.405 534.572,73.079 522.195,83.714 525.777,67.794 511.837,59.311 528.086,57.796 531.846,41.916 
			538.307,56.903 		"/>
		
			<line clip-path="url(#SVGID_2_)" fill="none" stroke="#000000" stroke-width="0" stroke-miterlimit="3.864" x1="723.44" y1="55.578" x2="831.035" y2="182.009"/>
		<polygon clip-path="url(#SVGID_2_)" fill-rule="evenodd" clip-rule="evenodd" fill="#DC5B26" points="873.156,182.01 
			765.558,55.573 757.117,58.728 742.832,41.917 741.013,61.586 722.822,59.311 736.828,75.762 733.179,83.724 840.773,210.155 		
			"/>
		<polygon clip-path="url(#SVGID_2_)" fill-rule="evenodd" clip-rule="evenodd" fill="#E2B72D" points="915.276,182.01 
			807.678,55.573 799.237,58.728 784.952,41.917 783.133,61.586 764.943,59.311 778.948,75.762 775.299,83.724 882.895,210.155 		
			"/>
		<polygon clip-path="url(#SVGID_2_)" fill-rule="evenodd" clip-rule="evenodd" fill="#047744" points="957.396,182.01 
			849.799,55.573 841.357,58.728 827.072,41.917 825.254,61.586 807.063,59.311 821.068,75.762 817.42,83.724 925.015,210.155 		"/>
		<polygon clip-path="url(#SVGID_2_)" fill-rule="evenodd" clip-rule="evenodd" fill="#015192" points="999.517,182.01 
			891.919,55.573 883.478,58.728 869.193,41.917 867.373,61.586 849.184,59.311 863.188,75.762 859.539,83.724 967.135,210.155 		
			"/>
		<polygon clip-path="url(#SVGID_2_)" fill="#C52F47" points="831.035,182.01 822.865,189.11 733.18,83.724 736.828,75.762 
			722.823,59.311 737.994,60.657 737.977,72.657 		"/>
		<polygon clip-path="url(#SVGID_2_)" fill="#DE8928" points="873.156,182.01 864.986,189.11 775.3,83.724 778.949,75.762 
			764.943,59.311 781.529,61.012 779.408,71.847 		"/>
		<polygon clip-path="url(#SVGID_2_)" fill="#73973E" points="915.276,182.01 907.105,189.11 817.42,83.724 821.069,75.762 
			807.062,59.311 822.809,60.967 821.696,72.044 		"/>
		<polygon clip-path="url(#SVGID_2_)" fill="#05636B" points="957.396,182.01 949.227,189.11 859.539,83.724 863.188,75.762 
			849.184,59.311 864.975,61.499 863.834,72.066 		"/>
		<polygon clip-path="url(#SVGID_2_)" fill-rule="evenodd" clip-rule="evenodd" fill="#FFFFFF" points="723.438,55.573 
			711.182,66.346 717.473,81.405 703.438,73.079 691.062,83.714 694.643,67.794 680.703,59.311 696.951,57.796 700.713,41.916 
			707.172,56.903 		"/>
		<polygon clip-path="url(#SVGID_2_)" fill-rule="evenodd" clip-rule="evenodd" fill="#FFFFFF" points="891.918,55.573 
			879.662,66.346 885.953,81.405 871.92,73.079 859.543,83.714 863.125,67.794 849.185,59.311 865.433,57.796 869.193,41.916 
			875.653,56.903 		"/>
		<polygon clip-path="url(#SVGID_2_)" fill-rule="evenodd" clip-rule="evenodd" fill="#FFFFFF" points="849.799,55.573 
			837.542,66.346 843.833,81.405 829.799,73.079 817.424,83.714 821.004,67.794 807.063,59.311 823.312,57.796 827.073,41.916 
			833.533,56.903 		"/>
		<polygon clip-path="url(#SVGID_2_)" fill-rule="evenodd" clip-rule="evenodd" fill="#FFFFFF" points="807.678,55.573 
			795.422,66.346 801.713,81.405 787.679,73.079 775.303,83.714 778.883,67.794 764.943,59.311 781.191,57.796 784.953,41.916 
			791.413,56.903 		"/>
		<polygon clip-path="url(#SVGID_2_)" fill-rule="evenodd" clip-rule="evenodd" fill="#FFFFFF" points="765.558,55.573 
			753.302,66.346 759.593,81.405 745.559,73.079 733.183,83.714 736.763,67.794 722.824,59.311 739.072,57.796 742.832,41.916 
			749.293,56.903 		"/>
	</g>
	<g>
		<path fill="#FAF0DF" d="M995.211,67.475c0,6.493-0.732,11.027-1.961,12.129c-0.163,0.151-0.323,0.3-0.482,0.449
			c-3.316,3.093-5.746,6.291-17.61,9.912c-17.761,5.42-46.437,9.114-85.236,10.979c-32.522,1.564-63.731,1.026-85.614,1.021
			l-4.004-0.001c-17.179,0-42.521-0.498-74.604-0.795c-50.307-0.465-119.205-1.893-192.715-1.893
			c-62.554,0-136.861,1.469-196.567,2.016c-54.8,0.5-98.084,1.16-113.71,0.887c-12.145-0.211-22.987-0.369-33.472-0.521
			c-36.249-0.526-64.303-0.379-97.015-2.322c-28.084-1.667-46.472-3.908-57.868-7.051C15.2,87,5.216,77.687,5.216,66.734
			c0-10.954,9.984-20.266,29.136-25.549c11.396-3.143,29.784-5.384,57.868-7.052c32.712-1.942,60.766-1.795,97.015-2.322
			c10.485-0.152,21.327-0.31,33.472-0.522c15.626-0.272,58.91,0.388,113.71,0.888c59.706,0.545,134.013,2.016,196.567,2.016
			c73.51,0,142.408-1.428,192.715-1.894c32.083-0.296,57.425-0.794,74.604-0.794l4.002-0.001c21.885-0.007,53.092-0.544,85.615,1.02
			c38.801,1.865,67.477,5.559,85.237,10.979c11.864,3.621,14.294,6.819,17.61,9.912c0.159,0.149,0.319,0.297,0.479,0.445
			c1.231,1.106,1.964,5.64,1.964,12.133V67.475z"/>
	</g>
	<g>
		<defs>
			<path id="SVGID_3_" d="M222.707,31.29c-12.145,0.211-22.987,0.369-33.472,0.521c-36.25,0.527-64.303,0.379-97.014,2.322
				c-28.086,1.668-46.473,3.909-57.869,7.052C15.2,46.467,5.217,55.78,5.217,66.734S15.2,87,34.352,92.282
				c11.396,3.143,29.783,5.385,57.869,7.052c32.711,1.943,60.764,1.795,97.014,2.323c10.485,0.151,21.327,0.309,33.472,0.521
				c15.626,0.272,58.91-0.387,113.71-0.887c59.706-0.547,134.013-2.016,196.567-2.016c73.511,0,142.408,1.427,192.715,1.892
				c32.084,0.297,57.425,0.795,74.604,0.795l4.004,0.001c21.885,0.008,53.092,0.544,85.615-1.02
				c38.798-1.865,67.475-5.559,85.234-10.979c11.865-3.621,14.295-6.82,17.611-9.913c0.16-0.149,0.318-0.297,0.482-0.448
				c1.227-1.103,1.961-5.637,1.961-12.129v-1.483c0-6.492-0.734-11.026-1.965-12.132c-0.16-0.148-0.318-0.296-0.479-0.445
				c-3.316-3.093-5.746-6.291-17.611-9.913c-17.76-5.419-46.438-9.113-85.235-10.978c-32.524-1.565-63.731-1.027-85.616-1.02h-4.002
				c-17.179,0-42.52,0.499-74.604,0.795c-50.307,0.465-119.204,1.894-192.715,1.894c-62.554,0-136.861-1.471-196.567-2.016
				c-45.947-0.42-83.797-0.951-104.038-0.951C228.478,31.226,225.232,31.246,222.707,31.29"/>
		</defs>
		<clipPath id="SVGID_4_">
			<use xlink:href="#SVGID_3_"  overflow="visible"/>
		</clipPath>
		<polygon clip-path="url(#SVGID_4_)" fill-rule="evenodd" clip-rule="evenodd" fill="#AD2070" points="198.135,182.01 
			90.536,55.573 82.096,58.728 67.811,41.917 65.992,61.586 47.802,59.311 61.807,75.762 58.157,83.724 165.752,210.155 		"/>
		
			<line clip-path="url(#SVGID_4_)" fill="none" stroke="#000000" stroke-width="0" stroke-miterlimit="3.864" x1="90.539" y1="55.578" x2="198.135" y2="182.009"/>
		<polygon clip-path="url(#SVGID_4_)" fill-rule="evenodd" clip-rule="evenodd" fill="#DC5B26" points="240.255,182.01 
			132.656,55.573 124.217,58.728 109.932,41.917 108.113,61.586 89.922,59.311 103.927,75.762 100.277,83.724 207.872,210.155 		"/>
		<polygon clip-path="url(#SVGID_4_)" fill-rule="evenodd" clip-rule="evenodd" fill="#E2B72D" points="282.375,182.01 
			174.778,55.573 166.337,58.728 152.052,41.917 150.233,61.586 132.043,59.311 146.048,75.762 142.397,83.724 249.993,210.155 		
			"/>
		<polygon clip-path="url(#SVGID_4_)" fill-rule="evenodd" clip-rule="evenodd" fill="#047744" points="324.496,182.01 
			216.898,55.573 208.457,58.728 194.172,41.917 192.354,61.586 174.164,59.311 188.168,75.762 184.518,83.724 292.113,210.155 		
			"/>
		<polygon clip-path="url(#SVGID_4_)" fill-rule="evenodd" clip-rule="evenodd" fill="#015192" points="366.616,182.01 
			259.018,55.573 250.577,58.728 236.292,41.917 234.473,61.586 216.284,59.311 230.289,75.762 226.638,83.724 334.234,210.155 		
			"/>
		<polygon clip-path="url(#SVGID_4_)" fill="#C52F47" points="198.135,182.01 189.964,189.11 100.278,83.724 103.927,75.762 
			89.922,59.311 105.094,60.657 105.076,72.657 		"/>
		<polygon clip-path="url(#SVGID_4_)" fill="#DE8928" points="240.255,182.01 232.085,189.11 142.398,83.724 146.048,75.762 
			132.043,59.311 148.63,61.012 146.508,71.847 		"/>
		<polygon clip-path="url(#SVGID_4_)" fill="#73973E" points="282.375,182.01 274.206,189.11 184.519,83.724 188.168,75.762 
			174.164,59.311 189.91,60.967 188.795,72.044 		"/>
		<polygon clip-path="url(#SVGID_4_)" fill="#05636B" points="324.496,182.01 316.326,189.11 226.639,83.724 230.289,75.762 
			216.284,59.311 232.075,61.499 230.935,72.066 		"/>
		<polygon clip-path="url(#SVGID_4_)" fill-rule="evenodd" clip-rule="evenodd" fill="#AD2070" points="409.09,182.01 
			301.492,55.573 293.051,58.728 278.767,41.917 276.948,61.586 258.757,59.311 272.762,75.762 269.113,83.724 376.708,210.155 		
			"/>
		<polygon clip-path="url(#SVGID_4_)" fill="#582D82" points="366.906,182.01 358.736,189.11 269.05,83.724 272.699,75.762 
			258.694,59.311 278,61.499 273.658,72.436 		"/>
		<polygon clip-path="url(#SVGID_4_)" fill-rule="evenodd" clip-rule="evenodd" fill="#FFFFFF" points="90.536,55.573 
			78.282,66.346 84.573,81.405 70.538,73.079 58.161,83.714 61.742,67.794 47.802,59.311 64.051,57.796 67.811,41.916 
			74.272,56.903 		"/>
		<polygon clip-path="url(#SVGID_4_)" fill-rule="evenodd" clip-rule="evenodd" fill="#FFFFFF" points="301.492,55.573 
			289.237,66.346 295.528,81.405 281.493,73.079 269.117,83.714 272.698,67.794 258.758,59.311 275.006,57.796 278.767,41.916 
			285.227,56.903 		"/>
		<polygon clip-path="url(#SVGID_4_)" fill-rule="evenodd" clip-rule="evenodd" fill="#FFFFFF" points="259.018,55.573 
			246.763,66.346 253.054,81.405 239.02,73.079 226.643,83.714 230.224,67.794 216.284,59.311 232.533,57.796 236.293,41.916 
			242.754,56.903 		"/>
		<polygon clip-path="url(#SVGID_4_)" fill-rule="evenodd" clip-rule="evenodd" fill="#FFFFFF" points="216.897,55.573 
			204.643,66.346 210.934,81.405 196.9,73.079 184.522,83.714 188.104,67.794 174.164,59.311 190.413,57.796 194.173,41.916 
			200.634,56.903 		"/>
		<polygon clip-path="url(#SVGID_4_)" fill-rule="evenodd" clip-rule="evenodd" fill="#FFFFFF" points="174.777,55.573 
			162.522,66.346 168.813,81.405 154.778,73.079 142.402,83.714 145.983,67.794 132.043,59.311 148.292,57.796 152.052,41.916 
			158.513,56.903 		"/>
		<polygon clip-path="url(#SVGID_4_)" fill-rule="evenodd" clip-rule="evenodd" fill="#FFFFFF" points="132.656,55.573 
			120.402,66.346 126.693,81.405 112.658,73.079 100.281,83.714 103.863,67.794 89.922,59.311 106.172,57.796 109.932,41.916 
			116.392,56.903 		"/>
		
			<line clip-path="url(#SVGID_4_)" fill="none" stroke="#000000" stroke-width="0" stroke-miterlimit="3.864" x1="301.496" y1="55.578" x2="409.09" y2="182.009"/>
		<polygon clip-path="url(#SVGID_4_)" fill-rule="evenodd" clip-rule="evenodd" fill="#DC5B26" points="451.211,182.01 
			343.613,55.573 335.173,58.728 320.887,41.917 319.069,61.586 300.878,59.311 314.883,75.762 311.234,83.724 418.829,210.155 		
			"/>
		<polygon clip-path="url(#SVGID_4_)" fill-rule="evenodd" clip-rule="evenodd" fill="#E2B72D" points="493.331,182.01 
			385.733,55.573 377.293,58.728 363.008,41.917 361.189,61.586 342.999,59.311 357.003,75.762 353.354,83.724 460.949,210.155 		
			"/>
		<polygon clip-path="url(#SVGID_4_)" fill-rule="evenodd" clip-rule="evenodd" fill="#047744" points="535.451,182.01 
			427.853,55.573 419.413,58.728 405.127,41.917 403.309,61.586 385.119,59.311 399.123,75.762 395.474,83.724 503.069,210.155 		
			"/>
		<polygon clip-path="url(#SVGID_4_)" fill-rule="evenodd" clip-rule="evenodd" fill="#015192" points="577.572,182.01 
			469.974,55.573 461.534,58.728 447.248,41.917 445.43,61.586 427.24,59.311 441.245,75.762 437.595,83.724 545.189,210.155 		"/>
		<polygon clip-path="url(#SVGID_4_)" fill="#C52F47" points="409.09,182.01 400.92,189.11 311.233,83.724 314.883,75.762 
			300.877,59.311 316.049,60.657 316.031,72.657 		"/>
		<polygon clip-path="url(#SVGID_4_)" fill="#DE8928" points="451.211,182.01 443.041,189.11 353.354,83.724 357.003,75.762 
			342.999,59.311 359.586,61.012 357.464,71.847 		"/>
		<polygon clip-path="url(#SVGID_4_)" fill="#73973E" points="493.331,182.01 485.16,189.11 395.475,83.724 399.124,75.762 
			385.119,59.311 400.865,60.967 399.752,72.044 		"/>
		<polygon clip-path="url(#SVGID_4_)" fill="#05636B" points="535.451,182.01 527.281,189.11 437.595,83.724 441.245,75.762 
			427.239,59.311 443.03,61.499 441.89,72.066 		"/>
		<polygon clip-path="url(#SVGID_4_)" fill-rule="evenodd" clip-rule="evenodd" fill="#AD2070" points="620.047,182.01 
			512.449,55.573 504.008,58.728 489.723,41.917 487.904,61.586 469.713,59.311 483.719,75.762 480.068,83.724 587.664,210.155 		
			"/>
		<polygon clip-path="url(#SVGID_4_)" fill="#582D82" points="577.862,182.01 569.692,189.11 480.005,83.724 483.655,75.762 
			469.65,59.311 488.955,61.499 484.614,72.436 		"/>
		<polygon clip-path="url(#SVGID_4_)" fill-rule="evenodd" clip-rule="evenodd" fill="#FFFFFF" points="301.492,55.573 
			289.237,66.346 295.528,81.405 281.493,73.079 269.117,83.714 272.698,67.794 258.758,59.311 275.006,57.796 278.767,41.916 
			285.227,56.903 		"/>
		<polygon clip-path="url(#SVGID_4_)" fill-rule="evenodd" clip-rule="evenodd" fill="#FFFFFF" points="512.448,55.573 
			500.192,66.346 506.483,81.405 492.449,73.079 480.073,83.714 483.654,67.794 469.714,59.311 485.963,57.796 489.724,41.916 
			496.184,56.903 		"/>
		<polygon clip-path="url(#SVGID_4_)" fill-rule="evenodd" clip-rule="evenodd" fill="#FFFFFF" points="469.974,55.573 
			457.718,66.346 464.009,81.405 449.976,73.079 437.599,83.714 441.179,67.794 427.239,59.311 443.488,57.796 447.249,41.916 
			453.709,56.903 		"/>
		<polygon clip-path="url(#SVGID_4_)" fill-rule="evenodd" clip-rule="evenodd" fill="#FFFFFF" points="427.853,55.573 
			415.598,66.346 421.889,81.405 407.855,73.079 395.478,83.714 399.059,67.794 385.119,59.311 401.368,57.796 405.128,41.916 
			411.589,56.903 		"/>
		<polygon clip-path="url(#SVGID_4_)" fill-rule="evenodd" clip-rule="evenodd" fill="#FFFFFF" points="385.733,55.573 
			373.478,66.346 379.769,81.405 365.734,73.079 353.358,83.714 356.939,67.794 342.999,59.311 359.248,57.796 363.008,41.916 
			369.469,56.903 		"/>
		<polygon clip-path="url(#SVGID_4_)" fill-rule="evenodd" clip-rule="evenodd" fill="#FFFFFF" points="343.612,55.573 
			331.357,66.346 337.648,81.405 323.613,73.079 311.237,83.714 314.818,67.794 300.877,59.311 317.127,57.796 320.888,41.916 
			327.348,56.903 		"/>
		
			<line clip-path="url(#SVGID_4_)" fill="none" stroke="#000000" stroke-width="0" stroke-miterlimit="3.864" x1="512.453" y1="55.578" x2="620.049" y2="182.009"/>
		<polygon clip-path="url(#SVGID_4_)" fill-rule="evenodd" clip-rule="evenodd" fill="#DC5B26" points="662.168,182.01 
			554.57,55.573 546.131,58.728 531.846,41.917 530.027,61.586 511.838,59.311 525.84,75.762 522.191,83.724 629.786,210.155 		"/>
		<polygon clip-path="url(#SVGID_4_)" fill-rule="evenodd" clip-rule="evenodd" fill="#E2B72D" points="704.289,182.01 
			596.691,55.573 588.251,58.728 573.965,41.917 572.146,61.586 553.958,59.311 567.963,75.762 564.312,83.724 671.906,210.155 		
			"/>
		<polygon clip-path="url(#SVGID_4_)" fill-rule="evenodd" clip-rule="evenodd" fill="#047744" points="746.409,182.01 
			638.811,55.573 630.371,58.728 616.087,41.917 614.268,61.586 596.078,59.311 610.083,75.762 606.432,83.724 714.027,210.155 		
			"/>
		<polygon clip-path="url(#SVGID_4_)" fill-rule="evenodd" clip-rule="evenodd" fill="#015192" points="788.529,182.01 
			680.933,55.573 672.491,58.728 658.207,41.917 656.387,61.586 638.198,59.311 652.203,75.762 648.553,83.724 756.147,210.155 		
			"/>
		<polygon clip-path="url(#SVGID_4_)" fill="#C52F47" points="620.049,182.01 611.879,189.11 522.191,83.724 525.842,75.762 
			511.838,59.311 527.006,60.657 526.989,72.657 		"/>
		<polygon clip-path="url(#SVGID_4_)" fill="#DE8928" points="662.168,182.01 653.998,189.11 564.312,83.724 567.963,75.762 
			553.957,59.311 570.545,61.012 568.422,71.847 		"/>
		<polygon clip-path="url(#SVGID_4_)" fill="#73973E" points="704.289,182.01 696.119,189.11 606.433,83.724 610.083,75.762 
			596.078,59.311 611.824,60.967 610.711,72.044 		"/>
		<polygon clip-path="url(#SVGID_4_)" fill="#05636B" points="746.409,182.01 738.239,189.11 648.553,83.724 652.203,75.762 
			638.198,59.311 653.987,61.499 652.848,72.066 		"/>
		<polygon clip-path="url(#SVGID_4_)" fill-rule="evenodd" clip-rule="evenodd" fill="#AD2070" points="831.004,182.01 
			723.406,55.573 714.967,58.728 700.68,41.917 698.862,61.586 680.672,59.311 694.676,75.762 691.027,83.724 798.623,210.155 		"/>
		<polygon clip-path="url(#SVGID_4_)" fill="#582D82" points="788.82,182.01 780.65,189.11 690.964,83.724 694.613,75.762 
			680.607,59.311 699.914,61.499 695.572,72.436 		"/>
		<polygon clip-path="url(#SVGID_4_)" fill-rule="evenodd" clip-rule="evenodd" fill="#FFFFFF" points="512.45,55.573 
			500.193,66.346 506.486,81.405 492.452,73.079 480.075,83.714 483.656,67.794 469.716,59.311 485.965,57.796 489.725,41.916 
			496.186,56.903 		"/>
		<polygon clip-path="url(#SVGID_4_)" fill-rule="evenodd" clip-rule="evenodd" fill="#FFFFFF" points="723.406,55.573 
			711.15,66.346 717.441,81.405 703.407,73.079 691.031,83.714 694.612,67.794 680.672,59.311 696.92,57.796 700.682,41.916 
			707.141,56.903 		"/>
		<polygon clip-path="url(#SVGID_4_)" fill-rule="evenodd" clip-rule="evenodd" fill="#FFFFFF" points="680.933,55.573 
			668.677,66.346 674.969,81.405 660.934,73.079 648.556,83.714 652.138,67.794 638.199,59.311 654.447,57.796 658.207,41.916 
			664.668,56.903 		"/>
		<polygon clip-path="url(#SVGID_4_)" fill-rule="evenodd" clip-rule="evenodd" fill="#FFFFFF" points="638.811,55.573 
			626.555,66.346 632.848,81.405 618.812,73.079 606.436,83.714 610.018,67.794 596.078,59.311 612.327,57.796 616.087,41.916 
			622.548,56.903 		"/>
		<polygon clip-path="url(#SVGID_4_)" fill-rule="evenodd" clip-rule="evenodd" fill="#FFFFFF" points="596.69,55.573 
			584.435,66.346 590.728,81.405 576.692,73.079 564.315,83.714 567.896,67.794 553.957,59.311 570.207,57.796 573.966,41.916 
			580.428,56.903 		"/>
		<polygon clip-path="url(#SVGID_4_)" fill-rule="evenodd" clip-rule="evenodd" fill="#FFFFFF" points="554.57,55.573 
			542.314,66.346 548.607,81.405 534.572,73.079 522.195,83.714 525.777,67.794 511.837,59.311 528.086,57.796 531.846,41.916 
			538.307,56.903 		"/>
		
			<line clip-path="url(#SVGID_4_)" fill="none" stroke="#000000" stroke-width="0" stroke-miterlimit="3.864" x1="723.44" y1="55.578" x2="831.035" y2="182.009"/>
		<polygon clip-path="url(#SVGID_4_)" fill-rule="evenodd" clip-rule="evenodd" fill="#DC5B26" points="873.156,182.01 
			765.558,55.573 757.117,58.728 742.832,41.917 741.013,61.586 722.822,59.311 736.828,75.762 733.179,83.724 840.773,210.155 		
			"/>
		<polygon clip-path="url(#SVGID_4_)" fill-rule="evenodd" clip-rule="evenodd" fill="#E2B72D" points="915.276,182.01 
			807.678,55.573 799.237,58.728 784.952,41.917 783.133,61.586 764.943,59.311 778.948,75.762 775.299,83.724 882.895,210.155 		
			"/>
		<polygon clip-path="url(#SVGID_4_)" fill-rule="evenodd" clip-rule="evenodd" fill="#047744" points="957.396,182.01 
			849.799,55.573 841.357,58.728 827.072,41.917 825.254,61.586 807.063,59.311 821.068,75.762 817.42,83.724 925.015,210.155 		"/>
		<polygon clip-path="url(#SVGID_4_)" fill-rule="evenodd" clip-rule="evenodd" fill="#015192" points="999.517,182.01 
			891.919,55.573 883.478,58.728 869.193,41.917 867.373,61.586 849.184,59.311 863.188,75.762 859.539,83.724 967.135,210.155 		
			"/>
		<polygon clip-path="url(#SVGID_4_)" fill="#C52F47" points="831.035,182.01 822.865,189.11 733.18,83.724 736.828,75.762 
			722.823,59.311 737.994,60.657 737.977,72.657 		"/>
		<polygon clip-path="url(#SVGID_4_)" fill="#DE8928" points="873.156,182.01 864.986,189.11 775.3,83.724 778.949,75.762 
			764.943,59.311 781.529,61.012 779.408,71.847 		"/>
		<polygon clip-path="url(#SVGID_4_)" fill="#73973E" points="915.276,182.01 907.105,189.11 817.42,83.724 821.069,75.762 
			807.062,59.311 822.809,60.967 821.696,72.044 		"/>
		<polygon clip-path="url(#SVGID_4_)" fill="#05636B" points="957.396,182.01 949.227,189.11 859.539,83.724 863.188,75.762 
			849.184,59.311 864.975,61.499 863.834,72.066 		"/>
		<polygon clip-path="url(#SVGID_4_)" fill-rule="evenodd" clip-rule="evenodd" fill="#FFFFFF" points="723.438,55.573 
			711.182,66.346 717.473,81.405 703.438,73.079 691.062,83.714 694.643,67.794 680.703,59.311 696.951,57.796 700.713,41.916 
			707.172,56.903 		"/>
		<polygon clip-path="url(#SVGID_4_)" fill-rule="evenodd" clip-rule="evenodd" fill="#FFFFFF" points="891.918,55.573 
			879.662,66.346 885.953,81.405 871.92,73.079 859.543,83.714 863.125,67.794 849.185,59.311 865.433,57.796 869.193,41.916 
			875.653,56.903 		"/>
		<polygon clip-path="url(#SVGID_4_)" fill-rule="evenodd" clip-rule="evenodd" fill="#FFFFFF" points="849.799,55.573 
			837.542,66.346 843.833,81.405 829.799,73.079 817.424,83.714 821.004,67.794 807.063,59.311 823.312,57.796 827.073,41.916 
			833.533,56.903 		"/>
		<polygon clip-path="url(#SVGID_4_)" fill-rule="evenodd" clip-rule="evenodd" fill="#FFFFFF" points="807.678,55.573 
			795.422,66.346 801.713,81.405 787.679,73.079 775.303,83.714 778.883,67.794 764.943,59.311 781.191,57.796 784.953,41.916 
			791.413,56.903 		"/>
		<polygon clip-path="url(#SVGID_4_)" fill-rule="evenodd" clip-rule="evenodd" fill="#FFFFFF" points="765.558,55.573 
			753.302,66.346 759.593,81.405 745.559,73.079 733.183,83.714 736.763,67.794 722.824,59.311 739.072,57.796 742.832,41.916 
			749.293,56.903 		"/>
	</g>
	<g opacity="0.1">
		<g>
			<defs>
				<rect id="SVGID_5_" x="558.807" y="125.586" width="39.873" height="36.448"/>
			</defs>
			<clipPath id="SVGID_6_">
				<use xlink:href="#SVGID_5_"  overflow="visible"/>
			</clipPath>
			<polygon clip-path="url(#SVGID_6_)" fill="none" stroke="#000000" stroke-miterlimit="10" points="559.895,161.04 
				569.178,143.38 563.905,127.578 579.174,134.243 597.592,126.579 588.31,144.238 593.58,160.04 578.313,153.377 			"/>
			<path clip-path="url(#SVGID_6_)" d="M590.5,156.314l-3.266-8.933c0.007-0.076-0.048-0.146-0.125-0.154l-14.352-0.003
				c-0.08-0.009-0.135-0.077-0.125-0.154l0.832-1.721c0.008-0.077,2.545,0.132,2.545,0.132c0.076,0.009,0.146-0.047,0.152-0.124
				l0.866-4.053c0.008-0.077-0.048-0.146-0.123-0.154l-4.231-0.154c-0.402-0.043-1.399,1.719-1.407,1.795l-4.255,8.416l-1.187,2.235
				l-1.237,2.134c-0.008,0.076-0.162,1.179,0.291,1.227l13.076-5.571l12.391,5.208C590.424,156.446,590.492,156.392,590.5,156.314"
				/>
			<path clip-path="url(#SVGID_6_)" d="M567.469,131.222l2.832,7.791c-0.011,0.075,0.047,0.146,0.123,0.154l11.502,0.608
				c0.078,0.008,0.133,0.076,0.125,0.155l-0.68,2.112c-0.007,0.076-0.178-0.639-0.255-0.647l-2.522-0.019
				c-0.078-0.008-0.146,0.047-0.155,0.124l-0.812,3.922c-0.009,0.078,7.176,0.029,7.176,0.029
				c0.402,0.043,7.312-12.525,7.312-12.525c0.008-0.075-0.189-1.565-0.641-1.614l-12.291,4.812l-11.562-5.025
				C567.545,131.09,567.477,131.145,567.469,131.222"/>
		</g>
	</g>
	<g opacity="0.4">
		<g>
			<defs>
				<rect id="SVGID_7_" x="565.354" y="165.644" width="25.166" height="10.527"/>
			</defs>
			<clipPath id="SVGID_8_">
				<use xlink:href="#SVGID_7_"  overflow="visible"/>
			</clipPath>
			<rect x="588.216" y="169.148" clip-path="url(#SVGID_8_)" width="0.769" height="7.022"/>
			<rect x="589.751" y="165.643" clip-path="url(#SVGID_8_)" width="0.769" height="10.528"/>
			<rect x="586.682" y="166.64" clip-path="url(#SVGID_8_)" width="0.768" height="9.531"/>
			<rect x="585.174" y="169.148" clip-path="url(#SVGID_8_)" width="0.768" height="7.022"/>
			<rect x="583.639" y="165.643" clip-path="url(#SVGID_8_)" width="0.769" height="10.528"/>
			<rect x="582.104" y="169.148" clip-path="url(#SVGID_8_)" width="0.768" height="7.022"/>
			<rect x="580.568" y="166.64" clip-path="url(#SVGID_8_)" width="0.768" height="9.531"/>
			<rect x="579.061" y="169.148" clip-path="url(#SVGID_8_)" width="0.769" height="7.022"/>
			<rect x="577.525" y="165.643" clip-path="url(#SVGID_8_)" width="0.769" height="10.528"/>
			<rect x="576.045" y="169.148" clip-path="url(#SVGID_8_)" width="0.768" height="7.022"/>
			<rect x="574.509" y="166.64" clip-path="url(#SVGID_8_)" width="0.769" height="9.531"/>
			<rect x="573.002" y="169.148" clip-path="url(#SVGID_8_)" width="0.768" height="7.022"/>
			<rect x="571.467" y="165.643" clip-path="url(#SVGID_8_)" width="0.768" height="10.528"/>
			<rect x="569.932" y="169.148" clip-path="url(#SVGID_8_)" width="0.769" height="7.022"/>
			<rect x="568.396" y="166.64" clip-path="url(#SVGID_8_)" width="0.768" height="9.531"/>
			<rect x="566.891" y="169.148" clip-path="url(#SVGID_8_)" width="0.768" height="7.022"/>
			<rect x="565.354" y="165.643" clip-path="url(#SVGID_8_)" width="0.769" height="10.528"/>
		</g>
	</g>
</g>
</svg>
