<?xml version="1.0" encoding="utf-8"?>
<!-- Generator: Adobe Illustrator 15.0.0, SVG Export Plug-In . SVG Version: 6.00 Build 0)  -->
<!DOCTYPE svg PUBLIC "-//W3C//DTD SVG 1.1//EN" "http://www.w3.org/Graphics/SVG/1.1/DTD/svg11.dtd">
<svg version="1.1" id="Layer_1" xmlns="http://www.w3.org/2000/svg" xmlns:xlink="http://www.w3.org/1999/xlink" x="0px" y="0px"
	viewBox="0 0 1000 210" enable-background="new 0 0 1000 210" xml:space="preserve" preserveAspectRatio="xMaxYMin meet">
	<style type="text/css"><![CDATA[
	path { 
		fill: #000;
		fill-opacity: .1;
		stroke: #fff; 
		stroke-opacity: .5; }
	]]></style>	
<g>
	<path d="M996.476,142.401c0-4.368-0.372-10.821-2.049-12.326c-3.447-3.195-6.691-6.602-19.192-10.416
		c-42.5-12.97-134.162-12.538-176.796-12.538c-45.069,0-148.53,1.633-267.317,1.633c-118.785,0-277.268-2.423-310.282-1.848
		c-54.329,0.945-86.497,0.87-128.634,3.372c-25.519,1.515-45.385,3.603-57.923,7.061c-20.895,5.764-30.33,15.7-30.33,25.803
		c0,10.104,9.435,20.039,30.33,25.804c12.538,3.459,32.404,5.546,57.923,7.061c42.137,2.502,74.305,2.426,128.634,3.372
		c33.015,0.576,191.497-1.847,310.282-1.847c118.787,0,222.248,1.632,267.317,1.632c42.634,0,134.296,0.432,176.796-12.537
		c12.501-3.816,15.745-7.222,19.192-10.417c1.677-1.505,2.049-7.957,2.049-12.326V142.401z"/>
	<path d="M996.476,65.993c0-4.368-0.372-10.821-2.049-12.326c-3.447-3.195-6.691-6.601-19.192-10.416
		c-42.5-12.97-134.162-12.538-176.796-12.538c-45.069,0-148.53,1.633-267.317,1.633c-118.785,0-277.268-2.423-310.282-1.848
		c-54.329,0.946-86.497,0.87-128.634,3.372c-25.519,1.515-45.385,3.603-57.923,7.061c-20.895,5.764-30.33,15.7-30.33,25.803
		s9.435,20.039,30.33,25.803c12.538,3.459,32.404,5.546,57.923,7.061c42.137,2.502,74.305,2.426,128.634,3.372
		c33.015,0.576,191.497-1.847,310.282-1.847c118.787,0,222.248,1.632,267.317,1.632c42.634,0,134.296,0.432,176.796-12.538
		c12.501-3.816,15.745-7.222,19.192-10.417c1.677-1.505,2.049-7.957,2.049-12.326V65.993z"/>
	<path fill="#FFFFFF" d="M995.211,143.883c0,6.493-0.732,11.027-1.961,12.13c-0.163,0.15-0.323,0.3-0.482,0.448
		c-3.316,3.094-5.746,6.291-17.61,9.912c-17.761,5.42-46.437,9.114-85.236,10.979c-32.522,1.563-63.731,1.025-85.614,1.02
		l-4.004-0.001c-17.179,0-42.521-0.498-74.604-0.795c-50.307-0.465-119.205-1.893-192.715-1.893
		c-62.554,0-136.861,1.47-196.567,2.016c-54.8,0.5-98.084,1.16-113.71,0.887c-12.145-0.211-22.987-0.368-33.472-0.521
		c-36.249-0.527-64.303-0.38-97.015-2.323c-28.084-1.667-46.472-3.908-57.868-7.051C15.2,163.408,5.216,154.096,5.216,143.143
		c0-10.954,9.984-20.267,29.136-25.549c11.396-3.144,29.784-5.385,57.868-7.053c32.712-1.941,60.766-1.795,97.015-2.321
		c10.485-0.152,21.327-0.311,33.472-0.522c15.626-0.271,58.91,0.388,113.71,0.888c59.706,0.545,134.013,2.017,196.567,2.017
		c73.51,0,142.408-1.429,192.715-1.895c32.083-0.296,57.425-0.794,74.604-0.794l4.002-0.001c21.885-0.007,53.092-0.544,85.615,1.021
		c38.801,1.864,67.477,5.559,85.237,10.979c11.864,3.621,14.294,6.819,17.61,9.912c0.159,0.149,0.319,0.297,0.479,0.445
		c1.231,1.105,1.964,5.64,1.964,12.133V143.883z"/>
</g>
<g>
	<path fill="#FFFFFF" d="M995.211,67.475c0,6.493-0.732,11.027-1.961,12.129c-0.163,0.151-0.323,0.3-0.482,0.449
		c-3.316,3.093-5.746,6.291-17.61,9.912c-17.761,5.42-46.437,9.114-85.236,10.979c-32.522,1.564-63.731,1.026-85.614,1.02
		l-4.004-0.001c-17.179,0-42.521-0.498-74.604-0.795c-50.307-0.465-119.205-1.893-192.715-1.893
		c-62.554,0-136.861,1.47-196.567,2.016c-54.8,0.5-98.084,1.16-113.71,0.887c-12.145-0.211-22.987-0.369-33.472-0.521
		c-36.249-0.527-64.303-0.38-97.015-2.323c-28.084-1.667-46.472-3.908-57.868-7.051C15.2,87,5.216,77.687,5.216,66.734
		c0-10.954,9.984-20.266,29.136-25.549c11.396-3.143,29.784-5.384,57.868-7.052c32.712-1.942,60.766-1.795,97.015-2.322
		c10.485-0.152,21.327-0.31,33.472-0.522c15.626-0.272,58.91,0.388,113.71,0.888c59.706,0.545,134.013,2.016,196.567,2.016
		c73.51,0,142.408-1.428,192.715-1.894c32.083-0.296,57.425-0.794,74.604-0.794l4.002-0.001c21.885-0.007,53.092-0.544,85.615,1.02
		c38.801,1.865,67.477,5.559,85.237,10.979c11.864,3.621,14.294,6.819,17.61,9.912c0.159,0.149,0.319,0.297,0.479,0.445
		c1.231,1.106,1.964,5.64,1.964,12.133V67.475z"/>
</g>
</svg>
