<?xml version="1.0" encoding="utf-8"?>
<!-- Generator: Adobe Illustrator 15.0.0, SVG Export Plug-In . SVG Version: 6.00 Build 0)  -->
<!DOCTYPE svg PUBLIC "-//W3C//DTD SVG 1.1//EN" "http://www.w3.org/Graphics/SVG/1.1/DTD/svg11.dtd">
<svg version="1.1" id="Layer_1" xmlns="http://www.w3.org/2000/svg" xmlns:xlink="http://www.w3.org/1999/xlink" x="0px" y="0px"
	 viewBox="0 0 1000 210" enable-background="new 0 0 1000 210" xml:space="preserve">
	<style type="text/css"><![CDATA[
	path { 
		fill: #fff;
		fill-opacity: .1;
		stroke: #fff; 
		stroke-opacity: .5; }
	]]></style>
<g>
	<path d="M922.066,105.938c0,4.715-0.221,7.809-0.292,8.4c-1.126,9.072-4.129,17.879-8.922,26.176
		c-4.39,7.599-10.163,14.592-17.161,20.789c-12.886,11.411-29.262,19.246-43.804,20.958c-24.394,2.872-59.638-0.169-108.42-3.281
		c-50.399-3.216-113.121-8.009-190.491-8.009c-85.859,0-163.381,5.108-231.777,8.917c-52.914,2.946-98.613,6.283-137.869,6.283
		c-0.049,0-0.096-0.001-0.142-0.001c-25.827-0.027-50.829-7.238-70.419-20.316c-0.783-0.521-1.552-1.053-2.311-1.59
		c-20.364-14.627-33.072-35.348-33.072-58.326c0-22.978,12.708-43.699,33.072-58.326c0.759-0.537,1.527-1.068,2.311-1.59
		c19.59-13.078,44.592-20.289,70.419-20.316c0.046,0,0.093-0.001,0.142-0.001c39.256,0,84.955,3.337,137.869,6.283
		c68.396,3.809,145.918,8.917,231.777,8.917c77.37,0,140.092-4.793,190.491-8.009c48.782-3.112,84.026-6.153,108.42-3.281
		c14.542,1.712,30.918,9.547,43.804,20.958c6.998,6.197,12.771,13.191,17.161,20.789c4.793,8.296,7.796,17.104,8.922,26.176
		C921.846,98.13,922.066,101.224,922.066,105.938"/>
	<path fill="#FFFFFF" d="M183.189,185.905c-25.775-0.025-49.73-7.225-69.273-20.271c-0.744-0.497-1.52-1.031-2.305-1.586
		c-10.303-7.401-17.41-16.131-23.095-25.948c-5.882-10.156-8.864-20.978-8.864-32.163c0-11.185,2.982-22.006,8.864-32.162
		c5.685-9.817,12.792-18.547,23.097-25.949c0.783-0.554,1.559-1.088,2.303-1.585c19.543-13.046,43.498-20.245,69.273-20.271
		l0.141-0.001c30.756,0,64.938,2.949,104.519,5.285c10.761,0.635,21.888,1.292,33.336,1.929c8.372,0.466,16.704,0.942,25.525,1.445
		c61.36,3.503,130.909,8.404,206.267,8.404c68.253,0,125.864-4.711,172.156-7.748c6.381-0.419,12.408-0.814,18.352-1.193
		c6.672-0.426,13.073-0.849,19.264-1.258c25.75-1.703,47.99-3.732,65.837-3.732c9.097,0,16.709,0.003,23.271,0.775
		c14.492,1.707,29.813,9.518,42.66,20.894c6.977,6.178,12.732,13.15,17.107,20.723c4.775,8.266,6.767,17.04,7.889,26.077
		c0.059,0.478,0.29,3.473,0.29,8.367c0,4.894-0.231,7.89-0.29,8.369c-1.122,9.036-3.113,17.81-7.889,26.076
		c-4.375,7.572-10.131,14.545-17.107,20.723c-12.847,11.376-28.168,19.188-42.66,20.893c-6.562,0.773-14.174,0.776-23.271,0.776
		c-17.847,0-40.085-2.029-65.834-3.731c-6.191-0.409-12.593-0.832-19.267-1.259c-5.945-0.379-11.974-0.774-18.355-1.192
		c-46.291-3.037-103.901-7.748-172.152-7.748c-75.357,0-144.906,4.9-206.267,8.403c-8.821,0.504-17.153,0.979-25.525,1.445
		c-11.446,0.637-22.573,1.294-33.333,1.929c-39.581,2.336-73.765,5.285-104.521,5.285L183.189,185.905z"/>
</g>
</svg>
