<?xml version="1.0" encoding="utf-8"?>
<!-- Generator: Adobe Illustrator 15.0.0, SVG Export Plug-In . SVG Version: 6.00 Build 0)  -->
<!DOCTYPE svg PUBLIC "-//W3C//DTD SVG 1.1//EN" "http://www.w3.org/Graphics/SVG/1.1/DTD/svg11.dtd">
<svg version="1.1" id="Layer_1" xmlns="http://www.w3.org/2000/svg" xmlns:xlink="http://www.w3.org/1999/xlink" x="0px" y="0px"
	 viewBox="0 0 1000 210" enable-background="new 0 0 1000 210" xml:space="preserve">
	<style type="text/css"><![CDATA[
	path { 
		fill: #fff;
		fill-opacity: .1;
		stroke: #fff; 
		stroke-opacity: .5; }
	]]></style>
<g>
	<path d="M980.424,146.487c0-4.866-1.305-10.786-2.98-12.462c-10.535-10.882-36.562-17.929-60.373-20.054
		c-23.606-1.65-49.666-2.382-63.352-2.64c-10.118,0-208.536,2.904-327.322,2.904c-118.786,0-296.184-7.24-329.199-6.6
		c-54.329,1.054-52.819-0.147-94.956,2.64c-68.049,4.502-82.666,16.546-82.666,36.955v-0.079c0,20.409,14.617,32.453,82.666,36.954
		c42.137,2.788,40.627,1.586,94.956,2.641c33.015,0.641,210.413-6.6,329.199-6.6c118.786,0,317.204,2.903,327.322,2.903
		c13.686-0.258,39.745-0.989,63.352-2.639c23.811-2.126,49.838-9.173,60.373-20.053c1.676-1.678,2.98-7.597,2.98-12.463V146.487z"/>
	<path fill="none" stroke="#000000" stroke-width="0.186" d="M980.424,146.487c0-4.866-1.305-10.786-2.98-12.462
		c-10.535-10.882-36.562-17.929-60.373-20.054c-23.606-1.65-49.666-2.382-63.352-2.64c-10.118,0-208.536,2.904-327.322,2.904
		c-118.786,0-296.184-7.24-329.199-6.6c-54.329,1.054-52.819-0.147-94.956,2.64c-68.049,4.502-82.666,16.546-82.666,36.955v-0.079
		c0,20.409,14.617,32.453,82.666,36.954c42.137,2.788,40.627,1.586,94.956,2.641c33.015,0.641,210.413-6.6,329.199-6.6
		c118.786,0,317.204,2.903,327.322,2.903c13.686-0.258,39.745-0.989,63.352-2.639c23.811-2.126,49.838-9.173,60.373-20.053
		c1.676-1.678,2.98-7.597,2.98-12.463V146.487z"/>
	<path fill="#FFFFFF" d="M202.158,186.15c-1.917,0-3.583-0.013-4.955-0.04c-17.892-0.347-29.63-0.076-39.062-0.158
		c-18.97-0.164-27.629-0.24-55.882-2.108c-32.938-2.179-53.14-6.143-65.725-12.473c-5.804-2.92-8.85-6.381-11.368-10.58
		c-2.232-3.721-3.319-8.169-3.324-13.6c0.005-5.43,1.092-9.879,3.324-13.599c2.518-4.2,5.564-7.66,11.368-10.58
		c12.585-6.33,32.787-10.294,65.725-12.474c28.254-1.869,36.913-1.943,55.884-2.107c9.431-0.082,21.169,0.188,39.06-0.158
		c1.372-0.027,3.038-0.04,4.955-0.04c16.365,0,50.363,1.137,93.405,2.34c67.688,1.893,160.39,5.79,230.833,5.79
		c91.951,0,234.047-3.075,294.726-3.831c18.253-0.227,30.312-0.563,32.597-0.563c10.536,0.198,37.809,0.481,63.334,2.267
		c12.294,1.097,24.764,3.488,35.104,6.732c11.534,3.617,19.212,8.195,24.097,13.24c1.549,1.549,2.905,7.285,2.905,12.279v1.409
		c0,4.993-1.356,10.729-2.903,12.274c-4.887,5.049-12.564,9.627-24.1,13.245c-10.34,3.243-22.81,5.635-35.108,6.732
		c-25.519,1.785-52.792,2.066-63.334,2.266c-2.28,0-14.339-0.336-32.592-0.563c-60.679-0.756-202.774-3.83-294.726-3.83
		c-70.453,0-163.163,3.896-230.856,5.79C252.507,185.014,218.517,186.15,202.158,186.15"/>
	<path d="M980.424,61.979c0-4.866-1.305-10.786-2.98-12.462c-10.535-10.881-36.562-17.928-60.373-20.053
		c-23.606-1.651-49.666-2.382-63.352-2.64c-10.118,0-208.536,2.904-327.322,2.904c-118.786,0-296.184-7.24-329.199-6.599
		c-54.329,1.054-52.819-0.148-94.956,2.639c-68.049,4.502-82.666,16.546-82.666,36.956v-0.08c0,20.41,14.617,32.454,82.666,36.955
		c42.137,2.789,40.627,1.585,94.956,2.64c33.015,0.641,210.413-6.599,329.199-6.599c118.786,0,317.204,2.903,327.322,2.903
		c13.686-0.258,39.745-0.989,63.352-2.639c23.811-2.126,49.838-9.173,60.373-20.053c1.676-1.677,2.98-7.596,2.98-12.462V61.979z"/>
	<path fill="none" stroke="#000000" stroke-width="0.186" d="M980.424,61.979c0-4.866-1.305-10.786-2.98-12.462
		c-10.535-10.881-36.562-17.928-60.373-20.053c-23.606-1.651-49.666-2.382-63.352-2.64c-10.118,0-208.536,2.904-327.322,2.904
		c-118.786,0-296.184-7.24-329.199-6.599c-54.329,1.054-52.819-0.148-94.956,2.639c-68.049,4.502-82.666,16.546-82.666,36.956v-0.08
		c0,20.41,14.617,32.454,82.666,36.955c42.137,2.789,40.627,1.585,94.956,2.64c33.015,0.641,210.413-6.599,329.199-6.599
		c118.786,0,317.204,2.903,327.322,2.903c13.686-0.258,39.745-0.989,63.352-2.639c23.811-2.126,49.838-9.173,60.373-20.053
		c1.676-1.677,2.98-7.596,2.98-12.462V61.979z"/>
	<path fill="#FFFFFF" d="M202.158,101.643c-1.916,0-3.583-0.013-4.955-0.04c-17.892-0.347-29.63-0.076-39.062-0.158
		c-18.97-0.164-27.629-0.24-55.882-2.109c-32.938-2.178-53.139-6.142-65.725-12.472c-5.804-2.92-8.85-6.381-11.368-10.58
		c-2.232-3.721-3.319-8.169-3.324-13.6c0.005-5.43,1.092-9.879,3.324-13.599c2.518-4.2,5.563-7.66,11.368-10.58
		c12.586-6.33,32.787-10.294,65.725-12.473c28.254-1.869,36.913-1.944,55.884-2.108c9.431-0.082,21.169,0.189,39.06-0.158
		c1.372-0.027,3.039-0.04,4.955-0.04c16.366,0,50.363,1.137,93.405,2.34c67.688,1.893,160.39,5.79,230.834,5.79
		c91.952,0,234.047-3.075,294.726-3.831c18.253-0.227,30.312-0.564,32.597-0.564c10.536,0.199,37.809,0.482,63.334,2.267
		c12.295,1.097,24.763,3.488,35.104,6.732c11.534,3.618,19.213,8.196,24.098,13.241c1.549,1.549,2.904,7.285,2.904,12.279v1.409
		c0,4.993-1.355,10.729-2.902,12.275c-4.887,5.048-12.565,9.627-24.1,13.245c-10.341,3.243-22.809,5.634-35.108,6.732
		c-25.519,1.785-52.792,2.067-63.334,2.266c-2.279,0-14.339-0.336-32.592-0.564c-60.679-0.756-202.773-3.83-294.726-3.83
		c-70.453,0-163.163,3.897-230.856,5.79C252.507,100.506,218.517,101.643,202.158,101.643"/>
</g>
</svg>
