<?xml version="1.0" encoding="utf-8"?>
<!-- Generator: Adobe Illustrator 15.0.0, SVG Export Plug-In . SVG Version: 6.00 Build 0)  -->
<!DOCTYPE svg PUBLIC "-//W3C//DTD SVG 1.1//EN" "http://www.w3.org/Graphics/SVG/1.1/DTD/svg11.dtd">
<svg version="1.1" id="Layer_1" xmlns="http://www.w3.org/2000/svg" xmlns:xlink="http://www.w3.org/1999/xlink" x="0px" y="0px"
	 viewBox="0 0 1000 210" enable-background="new 0 0 1000 210" xml:space="preserve">
<style type="text/css"><![CDATA[
path { 
	fill: #fff;
	fill-opacity: .1;
	stroke: #fff; 
	stroke-opacity: .5; }
]]></style>	
<g>
	<path d="M975.008,142.34c0-4.358-0.372-10.797-2.044-12.299c-3.439-3.188-6.677-6.586-19.151-10.393
		c-12.473-3.808-88.691-9.722-133.661-9.722s-171.794,3.528-290.316,3.528c-118.523,0-280.08-6.484-313.021-5.91
		c-54.21,0.945-67.569,0.247-109.613,2.743c-25.462,1.512-43.426,3.595-55.936,7.046c-20.849,5.751-26.546,14.248-26.546,25.673
		v-0.072v0.145v-0.072c0,11.425,5.697,19.923,26.546,25.674c12.51,3.45,30.474,5.533,55.936,7.045
		c42.044,2.497,55.403,1.8,109.613,2.743c32.941,0.574,194.498-5.91,313.021-5.91c118.522,0,245.347,3.528,290.316,3.528
		s121.188-5.914,133.661-9.721c12.475-3.808,15.712-7.205,19.151-10.394c1.672-1.502,2.044-7.939,2.044-12.299V142.34z"/>
	<path fill="none" stroke="#000000" stroke-width="0.186" d="M975.008,142.34c0-4.358-0.372-10.797-2.044-12.299
		c-3.439-3.188-6.677-6.586-19.151-10.393c-12.473-3.808-88.691-9.722-133.661-9.722s-171.794,3.528-290.316,3.528
		c-118.523,0-280.08-6.484-313.021-5.91c-54.21,0.945-67.569,0.247-109.613,2.743c-25.462,1.512-43.426,3.595-55.936,7.046
		c-20.849,5.751-26.546,14.248-26.546,25.673v-0.072v0.145v-0.072c0,11.425,5.697,19.923,26.546,25.674
		c12.51,3.45,30.474,5.533,55.936,7.045c42.044,2.497,55.403,1.8,109.613,2.743c32.941,0.574,194.498-5.91,313.021-5.91
		c118.522,0,245.347,3.528,290.316,3.528s121.188-5.914,133.661-9.721c12.475-3.808,15.712-7.205,19.151-10.394
		c1.672-1.502,2.044-7.939,2.044-12.299V142.34z"/>
	<path fill="#FFFFFF" d="M221.681,177.868c-1.859,0-3.495-0.012-4.863-0.036c-15.895-0.276-28.117-0.038-38.9-0.155
		c-25.562-0.281-40.991-0.45-70.702-2.214c-26.767-1.59-43.001-3.76-54.88-7.036c-9.946-2.744-15.805-6.224-19.969-10.637
		c-3.673-3.892-5.383-8.589-5.383-14.782c0-6.194,1.71-10.893,5.383-14.783c4.164-4.414,10.023-7.894,19.969-10.636
		c11.879-3.277,28.113-5.447,54.88-7.036c29.713-1.766,45.143-1.935,70.706-2.214c10.782-0.118,23.004,0.119,38.896-0.157
		c1.369-0.023,3.006-0.036,4.866-0.036c15.735,0,47.031,1.026,86.637,2.088c63.66,1.707,150.847,5.35,221.514,5.35
		c73.347,0,151.288-2.308,208.21-3.313c36.297-0.64,64.967-1.333,82.106-1.333c20.616,0,50.148,0.538,78.998,2.687
		c27.759,2.068,47.675,4.474,53.586,6.277c11.838,3.613,15.261,6.804,18.569,9.89c0.16,0.149,0.319,0.298,0.479,0.445
		c1.229,1.103,1.96,5.626,1.96,12.105v1.334c0,6.478-0.731,11.002-1.957,12.102c-0.162,0.151-0.321,0.299-0.481,0.448
		c-3.31,3.086-6.731,6.276-18.569,9.889c-5.911,1.804-25.827,4.21-53.586,6.278c-28.85,2.148-58.382,2.687-78.998,2.687
		c-17.14,0-45.81-0.692-82.106-1.334c-56.915-1.005-134.863-3.312-208.21-3.312c-70.676,0-157.87,3.643-221.536,5.35
		C268.692,176.844,237.407,177.868,221.681,177.868"/>
	<path d="M975.008,66.201c0-4.359-0.372-10.797-2.044-12.299c-3.439-3.188-6.677-6.586-19.151-10.393
		c-12.473-3.807-88.691-9.721-133.661-9.721s-171.794,3.528-290.316,3.528c-118.523,0-280.079-6.484-313.021-5.91
		c-54.21,0.945-67.569,0.247-109.613,2.743c-25.462,1.512-43.426,3.595-55.935,7.046c-20.85,5.751-26.547,14.248-26.547,25.673
		v-0.072v0.144v-0.072c0,11.425,5.697,19.923,26.547,25.675c12.509,3.449,30.473,5.532,55.935,7.045
		c42.044,2.495,55.403,1.799,109.613,2.742c32.942,0.574,194.498-5.91,313.021-5.91c118.522,0,245.347,3.528,290.316,3.528
		s121.188-5.914,133.661-9.721c12.475-3.807,15.712-7.205,19.151-10.393c1.672-1.502,2.044-7.94,2.044-12.299V66.201z"/>
	<path fill="none" stroke="#000000" stroke-width="0.186" d="M975.008,66.201c0-4.359-0.372-10.797-2.044-12.299
		c-3.439-3.188-6.677-6.586-19.151-10.393c-12.473-3.807-88.691-9.721-133.661-9.721s-171.794,3.528-290.316,3.528
		c-118.523,0-280.079-6.484-313.021-5.91c-54.21,0.945-67.569,0.247-109.613,2.743c-25.462,1.512-43.426,3.595-55.935,7.046
		c-20.85,5.751-26.547,14.248-26.547,25.673v-0.072v0.144v-0.072c0,11.425,5.697,19.923,26.547,25.675
		c12.509,3.449,30.473,5.532,55.935,7.045c42.044,2.495,55.403,1.799,109.613,2.742c32.942,0.574,194.498-5.91,313.021-5.91
		c118.522,0,245.347,3.528,290.316,3.528s121.188-5.914,133.661-9.721c12.475-3.807,15.712-7.205,19.151-10.393
		c1.672-1.502,2.044-7.94,2.044-12.299V66.201z"/>
	<path fill="#FFFFFF" d="M221.681,101.73c-1.858,0-3.495-0.013-4.863-0.037c-15.895-0.276-28.116-0.037-38.9-0.156
		c-25.562-0.28-40.991-0.449-70.702-2.213c-26.767-1.59-43.001-3.76-54.88-7.037c-9.946-2.743-15.805-6.222-19.969-10.635
		c-3.672-3.892-5.383-8.589-5.383-14.783c0-6.194,1.711-10.892,5.383-14.783c4.164-4.414,10.023-7.893,19.969-10.636
		c11.879-3.277,28.113-5.447,54.88-7.036c29.713-1.765,45.143-1.934,70.706-2.214c10.782-0.118,23.004,0.12,38.896-0.157
		c1.369-0.023,3.006-0.036,4.866-0.036c15.735,0,47.032,1.026,86.637,2.088c63.661,1.707,150.847,5.35,221.514,5.35
		c73.347,0,151.288-2.308,208.211-3.314c36.296-0.64,64.966-1.333,82.105-1.333c20.616,0,50.148,0.538,78.998,2.687
		c27.759,2.068,47.675,4.473,53.586,6.277c11.838,3.613,15.261,6.804,18.569,9.89c0.16,0.149,0.319,0.297,0.479,0.445
		c1.229,1.102,1.96,5.626,1.96,12.105v1.334c0,6.478-0.731,11.002-1.957,12.102c-0.162,0.151-0.321,0.299-0.481,0.448
		c-3.31,3.086-6.731,6.277-18.569,9.889c-5.911,1.805-25.827,4.21-53.586,6.278c-28.85,2.149-58.382,2.687-78.998,2.687
		c-17.14,0-45.81-0.693-82.105-1.334c-56.916-1.005-134.864-3.312-208.211-3.312c-70.676,0-157.87,3.643-221.536,5.35
		C268.692,100.705,237.408,101.73,221.681,101.73"/>
</g>
</svg>
