<?xml version="1.0" encoding="utf-8"?>
<!-- Generator: Adobe Illustrator 15.0.0, SVG Export Plug-In . SVG Version: 6.00 Build 0)  -->
<!DOCTYPE svg PUBLIC "-//W3C//DTD SVG 1.1//EN" "http://www.w3.org/Graphics/SVG/1.1/DTD/svg11.dtd">
<svg version="1.1" id="Layer_1" xmlns="http://www.w3.org/2000/svg" xmlns:xlink="http://www.w3.org/1999/xlink" x="0px" y="0px"
	 width="370px" height="350px" viewBox="0 0 370 350" enable-background="new 0 0 370 350" xml:space="preserve">
<style type="text/css"><![CDATA[
.logoShape { fill: #fff; }
]]></style>	
<path class="logoShape" fill="#C41230" d="M203.92,146.531l50.81-116.403L134.249,70.316L-0.4-0.46l58.434,140.438L7.224,256.389L127.706,216.2
	l134.648,70.779L203.92,146.531z M119.236,103.011l-13.126-6.347c-0.582-0.069-1.107,0.356-1.176,0.941l-0.026,109.439
	c-0.066,0.59-0.59,1.012-1.174,0.947l-68.105,24.91c-0.583-0.056-1.012-0.586-0.949-1.174l39.71-94.481L31.905,37.537
	c0.367-3.446,8.764-2.272,9.358-2.211l16.256,9.433l17.057,9.047l64.165,32.437c0.583,0.062,14.023,7.669,13.692,10.736
	l-1.187,32.26c-0.062,0.582-0.585,1.004-1.174,0.943l-30.905-6.6c-0.583-0.062-1.012-0.582-0.943-1.167
	C118.224,122.415,119.821,103.067,119.236,103.011z M149.374,164.851l11.185,3.621c0.59,0.069,1.113-0.358,1.173-0.946l4.64-87.704
	c0.069-0.583,0.596-1.007,1.183-0.942l59.4-21.59c0.587,0.057,1.006,0.584,0.938,1.168l-38.328,88.16l36.693,93.701
	c-0.377,3.448-11.729,4.966-12.308,4.899c0,0-95.834-52.695-95.504-55.765c0,0-0.359-54.768,0.223-54.704l29.907,6.187
	c0.584,0.062,1.004,0.584,0.941,1.18"/>
</svg>
