<?xml version="1.0" encoding="utf-8"?>
<!-- Generator: Adobe Illustrator 15.0.0, SVG Export Plug-In . SVG Version: 6.00 Build 0)  -->
<!DOCTYPE svg PUBLIC "-//W3C//DTD SVG 1.1//EN" "http://www.w3.org/Graphics/SVG/1.1/DTD/svg11.dtd">
<svg version="1.1" id="Layer_1" xmlns="http://www.w3.org/2000/svg" xmlns:xlink="http://www.w3.org/1999/xlink" x="0px" y="0px"
	 width="370px" height="350px" viewBox="0 0 370 350" enable-background="new 0 0 370 350" xml:space="preserve">
<g class="logoName">
	<path fill="#C41230" d="M0.41,311.038h26.952c10.283,0,11.996,6.284,11.996,10.075c0,4.518-1.817,7.426-6.023,8.932v0.104
		c4.414,0.676,5.089,6.284,5.089,9.919c0,1.817,0.156,6.181,1.922,8.05h-11.01c-0.935-1.714-0.987-3.22-0.987-7.115
		c0-5.192-2.233-6.49-5.349-6.49H10.485v13.605H0.41V311.038z M10.485,327.448h13.346c2.233,0,4.83-1.245,4.83-4.726
		c0-3.687-2.908-4.621-5.349-4.621H10.485V327.448z"/>
	<path fill="#C41230" d="M44.657,311.038h34.638v7.063H54.731v7.686h23.317v6.751H54.731v8.518h24.771v7.062H44.657V311.038z"/>
	<path fill="#C41230" d="M85.061,311.038h23.109c12.724,0,18.228,7.374,18.228,18.54c0,11.165-5.712,18.539-17.345,18.539H85.061
		V311.038z M95.135,341.056h11.217c6.647,0,9.659-3.999,9.659-11.842c0-6.854-2.908-11.112-10.594-11.112H95.135V341.056z"/>
</g>
<g class="logoName">
	<path fill="#C41230" d="M135.072,336.329c-0.363,5.504,0.571,10.698,7.946,10.698c8.569,0,8.153-6.077,8.153-11.218v-24.771h2.285
		v25.551c0,4.361,0.156,12.411-10.178,12.411c-10.023,0-10.491-7.115-10.491-12.671H135.072z"/>
	<path fill="#C41230" d="M162.285,311.038v22.227c0,4.467,0.935,13.763,11.633,13.763c9.088,0,12.152-5.35,12.152-13.763v-22.227
		h2.285v22.227c0,8.829-3.324,15.735-14.437,15.735C160.727,349,160,338.198,160,333.265v-22.227H162.285z"/>
	<path fill="#C41230" d="M194.899,311.038h2.855l23.422,34.015h0.104v-34.015h2.284v37.079h-2.7l-23.576-34.274h-0.104v34.274
		h-2.285V311.038z"/>
	<path fill="#C41230" d="M258.983,322.101c-0.986-6.232-6.439-9.972-12.619-9.972c-9.712,0-15.372,7.945-15.372,17.449
		c0,9.503,5.66,17.449,15.372,17.449c7.218,0,12.826-6.439,13.241-13.347h2.285C261.06,342.509,254.517,349,246.364,349
		c-11.114,0-17.657-8.568-17.657-19.422s6.543-19.423,17.657-19.423c13.138,0,14.852,11.425,14.903,11.945H258.983z"/>
	<path fill="#C41230" d="M262.671,313.012v-1.974h28.406v1.974h-13.086v35.105h-2.285v-35.105H262.671z"/>
	<path fill="#C41230" d="M293.623,311.038h2.285v37.079h-2.285V311.038z"/>
	<path fill="#C41230" d="M318.446,349c-11.113,0-17.657-8.568-17.657-19.422s6.544-19.423,17.657-19.423
		c11.061,0,17.604,8.569,17.604,19.423S329.507,349,318.446,349z M318.446,347.027c9.659,0,15.32-7.946,15.32-17.449
		c0-9.504-5.661-17.449-15.32-17.449c-9.711,0-15.371,7.945-15.371,17.449C303.075,339.081,308.735,347.027,318.446,347.027z"/>
	<path fill="#C41230" d="M340.934,311.038h2.856l23.422,34.015h0.104v-34.015h2.284v37.079h-2.7l-23.576-34.274h-0.104v34.274
		h-2.286V311.038z"/>
</g>
<path class="logoShape" fill="#C41230" d="M203.92,146.531l50.81-116.403L134.249,70.316L-0.4-0.46l58.434,140.438L7.224,256.389L127.706,216.2
	l134.648,70.779L203.92,146.531z M119.236,103.011l-13.126-6.347c-0.582-0.069-1.107,0.356-1.176,0.941l-0.026,109.439
	c-0.066,0.59-0.59,1.012-1.174,0.947l-68.105,24.91c-0.583-0.056-1.012-0.586-0.949-1.174l39.71-94.481L31.905,37.537
	c0.367-3.446,8.764-2.272,9.358-2.211l16.256,9.433l17.057,9.047l64.165,32.437c0.583,0.062,14.023,7.669,13.692,10.736
	l-1.187,32.26c-0.062,0.582-0.585,1.004-1.174,0.943l-30.905-6.6c-0.583-0.062-1.012-0.582-0.943-1.167
	C118.224,122.415,119.821,103.067,119.236,103.011z M149.374,164.851l11.185,3.621c0.59,0.069,1.113-0.358,1.173-0.946l4.64-87.704
	c0.069-0.583,0.596-1.007,1.183-0.942l59.4-21.59c0.587,0.057,1.006,0.584,0.938,1.168l-38.328,88.16l36.693,93.701
	c-0.377,3.448-11.729,4.966-12.308,4.899c0,0-95.834-52.695-95.504-55.765c0,0-0.359-54.768,0.223-54.704l29.907,6.187
	c0.584,0.062,1.004,0.584,0.941,1.18"/>
</svg>
